<svg width="93" height="26" viewBox="0 0 93 26" fill="none" xmlns="http://www.w3.org/2000/svg">
<path d="M0.233337 25.1326V1.01708H5.36953V20.9099H15.1946V25.1326H0.233337Z" fill="black"/>
<path d="M41.4058 13.0418C41.4058 14.9002 41.1738 16.5937 40.7099 18.1222C40.246 19.6398 39.5391 20.9484 38.5891 22.048C37.6503 23.1477 36.4573 23.9944 35.0104 24.5882C33.5634 25.171 31.8513 25.4625 29.8742 25.4625C27.897 25.4625 26.1849 25.171 24.738 24.5882C23.291 23.9944 22.0926 23.1477 21.1426 22.048C20.2038 20.9484 19.5024 19.6343 19.0384 18.1057C18.5745 16.5772 18.3426 14.8783 18.3426 13.0088C18.3426 10.5126 18.7513 8.34079 19.5686 6.49337C20.3971 4.63495 21.6673 3.1944 23.3794 2.17172C25.0914 1.14904 27.2674 0.637695 29.9073 0.637695C32.5361 0.637695 34.6956 1.14904 36.3855 2.17172C38.0866 3.1944 39.3458 4.63495 40.1631 6.49337C40.9915 8.35179 41.4058 10.5346 41.4058 13.0418ZM23.7273 13.0418C23.7273 14.7243 23.9372 16.1758 24.3569 17.3965C24.7877 18.6061 25.4559 19.5408 26.3617 20.2006C27.2674 20.8494 28.4382 21.1738 29.8742 21.1738C31.3322 21.1738 32.5141 20.8494 33.4198 20.2006C34.3255 19.5408 34.9827 18.6061 35.3914 17.3965C35.8112 16.1758 36.021 14.7243 36.021 13.0418C36.021 10.5126 35.5461 8.52224 34.5962 7.07069C33.6462 5.61914 32.0833 4.89337 29.9073 4.89337C28.4603 4.89337 27.2785 5.22327 26.3617 5.88306C25.4559 6.53186 24.7877 7.46657 24.3569 8.68718C23.9372 9.89681 23.7273 11.3484 23.7273 13.0418Z" fill="black"/>
<path d="M55.6214 11.5903H65.2311V24.0934C63.9608 24.5112 62.6409 24.8466 61.2712 25.0996C59.9016 25.3415 58.3497 25.4625 56.6155 25.4625C54.2076 25.4625 52.1642 24.9896 50.4852 24.0439C48.8063 23.0982 47.5305 21.7016 46.6579 19.8542C45.7853 18.0068 45.349 15.736 45.349 13.0418C45.349 10.5126 45.835 8.3243 46.807 6.47687C47.7901 4.62945 49.2205 3.1999 51.0983 2.18821C52.987 1.17653 55.2901 0.670685 58.0073 0.670685C59.2886 0.670685 60.5533 0.808142 61.8014 1.08306C63.0496 1.35797 64.1818 1.71536 65.1979 2.15522L63.4914 6.24595C62.7513 5.87206 61.9064 5.55866 60.9564 5.30574C60.0065 5.05282 59.0124 4.92636 57.9741 4.92636C56.483 4.92636 55.1851 5.26725 54.0806 5.94904C52.987 6.63083 52.1365 7.58753 51.529 8.81914C50.9326 10.0398 50.6343 11.4803 50.6343 13.1408C50.6343 14.7133 50.8497 16.1099 51.2805 17.3305C51.7113 18.5401 52.3906 19.4913 53.3184 20.1841C54.2462 20.8659 55.4557 21.2068 56.9469 21.2068C57.6759 21.2068 58.2889 21.1738 58.786 21.1078C59.2941 21.0308 59.769 20.9539 60.2109 20.8769V15.846H55.6214V11.5903Z" fill="black"/>
<path d="M92.9997 13.0418C92.9997 14.9002 92.7677 16.5937 92.3038 18.1222C91.8399 19.6398 91.133 20.9484 90.1831 22.048C89.2442 23.1477 88.0513 23.9944 86.6043 24.5882C85.1573 25.171 83.4453 25.4625 81.4681 25.4625C79.4909 25.4625 77.7789 25.171 76.3319 24.5882C74.8849 23.9944 73.6865 23.1477 72.7366 22.048C71.7977 20.9484 71.0963 19.6343 70.6324 18.1057C70.1685 16.5772 69.9365 14.8783 69.9365 13.0088C69.9365 10.5126 70.3452 8.34079 71.1626 6.49337C71.991 4.63495 73.2612 3.1944 74.9733 2.17172C76.6853 1.14904 78.8613 0.637695 81.5012 0.637695C84.1301 0.637695 86.2895 1.14904 87.9795 2.17172C89.6805 3.1944 90.9397 4.63495 91.757 6.49337C92.5855 8.35179 92.9997 10.5346 92.9997 13.0418ZM75.3212 13.0418C75.3212 14.7243 75.5311 16.1758 75.9508 17.3965C76.3816 18.6061 77.0499 19.5408 77.9556 20.2006C78.8613 20.8494 80.0322 21.1738 81.4681 21.1738C82.9261 21.1738 84.108 20.8494 85.0137 20.2006C85.9195 19.5408 86.5767 18.6061 86.9854 17.3965C87.4051 16.1758 87.615 14.7243 87.615 13.0418C87.615 10.5126 87.14 8.52224 86.1901 7.07069C85.2402 5.61914 83.6772 4.89337 81.5012 4.89337C80.0543 4.89337 78.8724 5.22327 77.9556 5.88306C77.0499 6.53186 76.3816 7.46657 75.9508 8.68718C75.5311 9.89681 75.3212 11.3484 75.3212 13.0418Z" fill="black"/>
</svg>
